# xmcd
#
# Track frame offsets: 
#        150
#        12066
#        23470
#        34141
#        46631
#        60016
#        70736
#        81372
#        92825
#        102937
#        114705
#        127289
#        139020
#        149988
#        163267
#        176522
#        187076
#        198096
#        209872
#        221741
#        231587
#        244565
#        255127
#        265537
#        275278
#        292768
#
# Disc length: 4085 seconds
#
# Revision: 0
# Processed by: cddbd v1.5.2PL0 Copyright (c) Steve Scherf et al.
# Submitted via: ExactAudioCopyFreeDBPlugin 1.0
#
DISCID=780ff31a
DTITLE=Wilson Pickett - In The Midnight Hour and The Exciting Wilson Pic
DTITLE=kett
DYEAR=2016
DGENRE=Soul
TTITLE0=In The Midnight Hour
TTITLE1=Teardrops Will Fall
TTITLE2=Take A Little Love
TTITLE3=For Better Or Worse
TTITLE4=I Found A Love
TTITLE5=That's A Man's Way
TTITLE6=I'm Gonna Cry
TTITLE7=Don't Fight It
TTITLE8=Take This Love I've Got
TTITLE9=Come Home Baby
TTITLE10=I'm Not Tired
TTITLE11=Let's Kiss And Make Up
TTITLE12=Land Of 1000 Dances
TTITLE13=Something You Got
TTITLE14=634-5789
TTITLE15=Barefootin'
TTITLE16=Mercy Mercy
TTITLE17=You're So Fine
TTITLE18=Ninety-Nine And A Half (Won't Do)
TTITLE19=Danger Zone
TTITLE20=I'm Drifting
TTITLE21=It's All Over
TTITLE22=She's So Good To Me
TTITLE23=Don't Fight It (Single Edit)
TTITLE24=If You Need Me (Live)
TTITLE25=I'm Gonna Cry (Live)
EXTD=
EXTT0=
EXTT1=
EXTT2=
EXTT3=
EXTT4=
EXTT5=
EXTT6=
EXTT7=
EXTT8=
EXTT9=
EXTT10=
EXTT11=
EXTT12=
EXTT13=
EXTT14=
EXTT15=
EXTT16=
EXTT17=
EXTT18=
EXTT19=
EXTT20=
EXTT21=
EXTT22=
EXTT23=
EXTT24=
EXTT25=
PLAYORDER=
